solid OpenSCAD_Model
  facet normal -1 0 0
    outer loop
      vertex -0.75 23 0
      vertex -0.75 14 14.5
      vertex -0.75 23 16.5
    endloop
  endfacet
  facet normal -1 0 0
    outer loop
      vertex -0.75 23 0
      vertex -0.75 9 14.5
      vertex -0.75 14 14.5
    endloop
  endfacet
  facet normal -1 0 0
    outer loop
      vertex -0.75 0 0
      vertex -0.75 9 14.5
      vertex -0.75 23 0
    endloop
  endfacet
  facet normal -1 0 0
    outer loop
      vertex -0.75 0 16.5
      vertex -0.75 9 14.5
      vertex -0.75 0 0
    endloop
  endfacet
  facet normal -1 0 0
    outer loop
      vertex -0.75 9 14.5
      vertex -0.75 0 16.5
      vertex -0.75 9 16.5
    endloop
  endfacet
  facet normal -1 -0 0
    outer loop
      vertex -0.75 23 16.5
      vertex -0.75 14 14.5
      vertex -0.75 14 16.5
    endloop
  endfacet
  facet normal 0 0 1
    outer loop
      vertex 1.5 9 16.5
      vertex -0.75 9 16.5
      vertex 1.5 1 16.5
    endloop
  endfacet
  facet normal 0 0 1
    outer loop
      vertex 2.25 1 16.5
      vertex 3 5.5 16.5
      vertex 2.25 5.5 16.5
    endloop
  endfacet
  facet normal 0 0 1
    outer loop
      vertex 3 5.5 16.5
      vertex 2.25 1 16.5
      vertex 3 0 16.5
    endloop
  endfacet
  facet normal -0 0 1
    outer loop
      vertex 1.5 1 16.5
      vertex 3 0 16.5
      vertex 2.25 1 16.5
    endloop
  endfacet
  facet normal 0 0 1
    outer loop
      vertex 1.5 1 16.5
      vertex -0.75 0 16.5
      vertex 3 0 16.5
    endloop
  endfacet
  facet normal 0 0 1
    outer loop
      vertex -0.75 0 16.5
      vertex 1.5 1 16.5
      vertex -0.75 9 16.5
    endloop
  endfacet
  facet normal 0 0 1
    outer loop
      vertex 3 23 16.5
      vertex 2.25 22 16.5
      vertex 3 17.5 16.5
    endloop
  endfacet
  facet normal 0 0 1
    outer loop
      vertex 3 23 16.5
      vertex 1.5 22 16.5
      vertex 2.25 22 16.5
    endloop
  endfacet
  facet normal -0 0 1
    outer loop
      vertex -0.75 23 16.5
      vertex 1.5 22 16.5
      vertex 3 23 16.5
    endloop
  endfacet
  facet normal 0 0 1
    outer loop
      vertex -0.75 14 16.5
      vertex 1.5 22 16.5
      vertex -0.75 23 16.5
    endloop
  endfacet
  facet normal 0 0 1
    outer loop
      vertex 1.5 22 16.5
      vertex -0.75 14 16.5
      vertex 1.5 14 16.5
    endloop
  endfacet
  facet normal 0 0 1
    outer loop
      vertex 3 17.5 16.5
      vertex 2.25 22 16.5
      vertex 2.25 17.5 16.5
    endloop
  endfacet
  facet normal 1 0 0
    outer loop
      vertex 3 5.5 16.5
      vertex 3 0 16.5
      vertex 3 5.5 1.5
    endloop
  endfacet
  facet normal 1 0 0
    outer loop
      vertex 3 17.5 1.5
      vertex 3 23 16.5
      vertex 3 17.5 16.5
    endloop
  endfacet
  facet normal 1 0 0
    outer loop
      vertex 3 23 16.5
      vertex 3 17.5 1.5
      vertex 3 23 0
    endloop
  endfacet
  facet normal 1 -0 0
    outer loop
      vertex 3 5.5 1.5
      vertex 3 23 0
      vertex 3 17.5 1.5
    endloop
  endfacet
  facet normal 1 0 0
    outer loop
      vertex 3 5.5 1.5
      vertex 3 0 0
      vertex 3 23 0
    endloop
  endfacet
  facet normal 1 0 0
    outer loop
      vertex 3 0 0
      vertex 3 5.5 1.5
      vertex 3 0 16.5
    endloop
  endfacet
  facet normal 0 1 -0
    outer loop
      vertex 3 23 0
      vertex -0.75 23 16.5
      vertex 3 23 16.5
    endloop
  endfacet
  facet normal 0 1 0
    outer loop
      vertex -0.75 23 16.5
      vertex 3 23 0
      vertex -0.75 23 0
    endloop
  endfacet
  facet normal 0 0 -1
    outer loop
      vertex -0.75 0 0
      vertex 3 23 0
      vertex 3 0 0
    endloop
  endfacet
  facet normal -0 0 -1
    outer loop
      vertex 3 23 0
      vertex -0.75 0 0
      vertex -0.75 23 0
    endloop
  endfacet
  facet normal 0 -1 0
    outer loop
      vertex -0.75 0 0
      vertex 3 0 16.5
      vertex -0.75 0 16.5
    endloop
  endfacet
  facet normal 0 -1 -0
    outer loop
      vertex 3 0 16.5
      vertex -0.75 0 0
      vertex 3 0 0
    endloop
  endfacet
  facet normal 1 0 0
    outer loop
      vertex 1.5 9 16.5
      vertex 1.5 1 16.5
      vertex 1.5 9 14.5
    endloop
  endfacet
  facet normal 1 0 0
    outer loop
      vertex 1.5 14 14.5
      vertex 1.5 22 16.5
      vertex 1.5 14 16.5
    endloop
  endfacet
  facet normal 1 0 0
    outer loop
      vertex 1.5 22 16.5
      vertex 1.5 14 14.5
      vertex 1.5 22 1.5
    endloop
  endfacet
  facet normal 1 -0 0
    outer loop
      vertex 1.5 9 14.5
      vertex 1.5 22 1.5
      vertex 1.5 14 14.5
    endloop
  endfacet
  facet normal 1 0 0
    outer loop
      vertex 1.5 1 1.5
      vertex 1.5 9 14.5
      vertex 1.5 1 16.5
    endloop
  endfacet
  facet normal 1 0 0
    outer loop
      vertex 1.5 9 14.5
      vertex 1.5 1 1.5
      vertex 1.5 22 1.5
    endloop
  endfacet
  facet normal 0 -1 0
    outer loop
      vertex 2.25 17.5 1.5
      vertex 3 17.5 16.5
      vertex 2.25 17.5 16.5
    endloop
  endfacet
  facet normal 0 -1 -0
    outer loop
      vertex 3 17.5 16.5
      vertex 2.25 17.5 1.5
      vertex 3 17.5 1.5
    endloop
  endfacet
  facet normal -0 0 1
    outer loop
      vertex 1.5 22 1.5
      vertex 2.25 17.5 1.5
      vertex 2.25 22 1.5
    endloop
  endfacet
  facet normal 0 0 1
    outer loop
      vertex 2.25 17.5 1.5
      vertex 1.5 22 1.5
      vertex 2.25 5.5 1.5
    endloop
  endfacet
  facet normal 0 0 1
    outer loop
      vertex 1.5 1 1.5
      vertex 2.25 5.5 1.5
      vertex 1.5 22 1.5
    endloop
  endfacet
  facet normal 0 0 1
    outer loop
      vertex 2.25 5.5 1.5
      vertex 1.5 1 1.5
      vertex 2.25 1 1.5
    endloop
  endfacet
  facet normal -0 0 1
    outer loop
      vertex 2.25 17.5 1.5
      vertex 3 5.5 1.5
      vertex 3 17.5 1.5
    endloop
  endfacet
  facet normal 0 0 1
    outer loop
      vertex 3 5.5 1.5
      vertex 2.25 17.5 1.5
      vertex 2.25 5.5 1.5
    endloop
  endfacet
  facet normal 0 1 -0
    outer loop
      vertex 3 5.5 1.5
      vertex 2.25 5.5 16.5
      vertex 3 5.5 16.5
    endloop
  endfacet
  facet normal 0 1 0
    outer loop
      vertex 2.25 5.5 16.5
      vertex 3 5.5 1.5
      vertex 2.25 5.5 1.5
    endloop
  endfacet
  facet normal -1 0 0
    outer loop
      vertex 2.25 17.5 1.5
      vertex 2.25 22 16.5
      vertex 2.25 22 1.5
    endloop
  endfacet
  facet normal -1 -0 0
    outer loop
      vertex 2.25 22 16.5
      vertex 2.25 17.5 1.5
      vertex 2.25 17.5 16.5
    endloop
  endfacet
  facet normal -1 0 0
    outer loop
      vertex 2.25 1 1.5
      vertex 2.25 5.5 16.5
      vertex 2.25 5.5 1.5
    endloop
  endfacet
  facet normal -1 -0 0
    outer loop
      vertex 2.25 5.5 16.5
      vertex 2.25 1 1.5
      vertex 2.25 1 16.5
    endloop
  endfacet
  facet normal 0 -1 0
    outer loop
      vertex 1.5 22 1.5
      vertex 2.25 22 16.5
      vertex 1.5 22 16.5
    endloop
  endfacet
  facet normal 0 -1 -0
    outer loop
      vertex 2.25 22 16.5
      vertex 1.5 22 1.5
      vertex 2.25 22 1.5
    endloop
  endfacet
  facet normal 0 1 -0
    outer loop
      vertex 2.25 1 1.5
      vertex 1.5 1 16.5
      vertex 2.25 1 16.5
    endloop
  endfacet
  facet normal 0 1 0
    outer loop
      vertex 1.5 1 16.5
      vertex 2.25 1 1.5
      vertex 1.5 1 1.5
    endloop
  endfacet
  facet normal 0 -1 0
    outer loop
      vertex -0.75 14 14.5
      vertex 1.5 14 16.5
      vertex -0.75 14 16.5
    endloop
  endfacet
  facet normal 0 -1 -0
    outer loop
      vertex 1.5 14 16.5
      vertex -0.75 14 14.5
      vertex 1.5 14 14.5
    endloop
  endfacet
  facet normal -0 0 1
    outer loop
      vertex -0.75 14 14.5
      vertex 1.5 9 14.5
      vertex 1.5 14 14.5
    endloop
  endfacet
  facet normal 0 0 1
    outer loop
      vertex 1.5 9 14.5
      vertex -0.75 14 14.5
      vertex -0.75 9 14.5
    endloop
  endfacet
  facet normal 0 1 -0
    outer loop
      vertex 1.5 9 14.5
      vertex -0.75 9 16.5
      vertex 1.5 9 16.5
    endloop
  endfacet
  facet normal 0 1 0
    outer loop
      vertex -0.75 9 16.5
      vertex 1.5 9 14.5
      vertex -0.75 9 14.5
    endloop
  endfacet
endsolid OpenSCAD_Model
